<svg width="16" height="16" viewBox="0 0 16 16" fill="none" xmlns="http://www.w3.org/2000/svg">
<path d="M14 1.5C14 1.22386 13.7761 1 13.5 1C13.2239 1 13 1.22386 13 1.5V4.68235C11.9256 3.06631 10.0877 2 8 2C4.68629 2 2 4.68629 2 8C2 11.3137 4.68629 14 8 14V13C5.23858 13 3 10.7614 3 8C3 5.23858 5.23858 3 8 3C9.63527 3 11.0878 3.78495 12.0005 5H9.5C9.22386 5 9 5.22386 9 5.5C9 5.77614 9.22386 6 9.5 6H14V1.5Z" fill="#CED0D6"/>
<path d="M10.65 11.35C10.8453 11.5452 11.1547 11.5452 11.35 11.35C11.5453 11.1547 11.5453 10.8453 11.35 10.65L10.7071 9.99997H14.5C14.7761 9.99997 15 9.77607 15 9.49997C15 9.22387 14.7761 8.99997 14.5 8.99997H10.7071L11.35 8.34991C11.5453 8.15461 11.5453 7.84527 11.35 7.64997C11.1547 7.45477 10.8453 7.45471 10.65 7.64991C10.4547 7.84511 9.14645 9.14637 9.14645 9.14637C9.05268 9.24017 9 9.36737 9 9.49997C9 9.63257 9.05268 9.75977 9.14645 9.85357L10.65 11.35Z" fill="#57965C"/>
<path d="M12.65 11.6499C12.8453 11.4547 13.1547 11.4547 13.35 11.6499L14.8536 13.1463C14.9015 13.1943 14.9377 13.2495 14.9621 13.3085C14.9865 13.3675 15 13.4321 15 13.4999C15 13.5677 14.9865 13.6323 14.9621 13.6913C14.9377 13.7503 14.9015 13.8055 14.8536 13.8535L13.35 15.35C13.1547 15.5452 12.8453 15.5452 12.65 15.35C12.4548 15.1547 12.4548 14.8453 12.65 14.65L13.2929 13.9999H9.5C9.22386 13.9999 9 13.776 9 13.4999C9 13.2238 9.22386 12.9999 9.5 12.9999H13.2929C13.2929 12.9999 12.8452 12.5453 12.65 12.35C12.4548 12.1547 12.4548 11.8452 12.65 11.6499Z" fill="#57965C"/>
</svg>
