<svg width="16" height="16" viewBox="0 0 16 16" fill="none" xmlns="http://www.w3.org/2000/svg">
<g clip-path="url(#clip0_1142_18308)">
<path fill-rule="evenodd" clip-rule="evenodd" d="M10.7008 4.2C10.7008 4.27899 10.6974 4.35728 10.6907 4.4347C11.1618 4.69509 11.5665 5.06092 11.8729 5.50036L13.9791 4.36035C14.222 4.2289 14.5254 4.31922 14.6569 4.56207C14.7883 4.80492 14.698 5.10835 14.4551 5.23979L12.3218 6.39447C12.3888 6.59599 12.4381 6.80565 12.4676 7.02158C12.3136 7.0073 12.1577 7 12 7C11.8161 7 11.6345 7.00993 11.4558 7.02928C11.2356 5.8736 10.2198 5 9 5H7C5.61929 5 4.5 6.11929 4.5 7.5V10C4.5 11.6582 5.65306 13.047 7.2011 13.4084C7.31258 13.7889 7.46807 14.1505 7.66169 14.4875C6.16515 14.3762 4.87239 13.5331 4.14017 12.3147L2.02989 13.5331C1.79075 13.6711 1.48495 13.5892 1.34688 13.3501C1.20881 13.1109 1.29075 12.8051 1.52989 12.667L3.72243 11.4012C3.57807 10.9602 3.5 10.4892 3.5 10V9.50006H1C0.723858 9.50006 0.5 9.2762 0.5 9.00006C0.5 8.72392 0.723858 8.50006 1 8.50006H3.5V7.5C3.5 7.11364 3.5626 6.74191 3.67822 6.39438L1.5423 5.2399C1.29938 5.1086 1.20889 4.80523 1.34019 4.5623C1.4715 4.31937 1.77487 4.22888 2.0178 4.36019L4.12714 5.5003C4.43389 5.06042 4.83909 4.6943 5.3108 4.43387C5.30416 4.35672 5.30078 4.27871 5.30078 4.2C5.30078 2.70883 6.50961 1.5 8.00078 1.5C9.49195 1.5 10.7008 2.70883 10.7008 4.2ZM7 4C6.76231 4 6.53015 4.02369 6.30577 4.06885C6.37272 3.19125 7.10603 2.5 8.00078 2.5C8.89564 2.5 9.62902 3.19142 9.69582 4.06917C9.47094 4.02381 9.23825 4 9 4H7Z" fill="#57965C"/>
<path d="M7 4C6.76231 4 6.53015 4.02369 6.30577 4.06885C6.37272 3.19125 7.10603 2.5 8.00078 2.5C8.89564 2.5 9.62902 3.19142 9.69582 4.06917C9.47094 4.02381 9.23825 4 9 4H7Z" fill="#253627"/>
<path d="M8.5 8C8.77614 8 9 8.22386 9 8.5V9.326L9.181 9.16238C9.90358 8.44447 10.9005 8 12.0002 8C13.1046 8 14.1053 8.44826 14.8286 9.17157C15.1887 9.5316 15.4806 9.96029 15.6831 10.4368C15.8159 10.7493 15.9101 11.0822 15.9597 11.4292C15.9988 11.7026 15.8089 11.9559 15.5356 11.995C15.2622 12.0341 15.0089 11.8442 14.9698 11.5708C14.9326 11.3108 14.8621 11.0617 14.7627 10.8279C14.6111 10.4711 14.3922 10.1493 14.1215 9.87868C13.5781 9.33524 12.8288 9 12.0002 9C11.1716 9 10.4223 9.33524 9.87888 9.87868L9.86997 9.88759L9.74562 10H10.5C10.7761 10 11 10.2239 11 10.5C11 10.7761 10.7761 11 10.5 11H8.5C8.22386 11 8 10.7761 8 10.5V8.5C8 8.22386 8.22386 8 8.5 8Z" fill="#CED0D6"/>
<path d="M8.46491 12.005C8.73827 11.9659 8.99157 12.1558 9.03067 12.4292C9.12449 13.0851 9.43079 13.6732 9.87894 14.1213C10.4224 14.6648 11.1717 15 12.0003 15C12.8288 15 13.5781 14.6648 14.1216 14.1213L14.1305 14.1124L14.2487 14H13.5C13.2239 14 13 13.7761 13 13.5C13 13.2239 13.2239 13 13.5 13H15.5C15.7761 13 16 13.2239 16 13.5V15.5C16 15.7761 15.7761 16 15.5 16C15.2239 16 15 15.7761 15 15.5V14.6657L14.8241 14.833C14.1011 15.5536 13.1024 16 12.0003 16C10.8958 16 9.89515 15.5517 9.17184 14.8284C8.57574 14.2323 8.16618 13.4477 8.04075 12.5708C8.00165 12.2974 8.19155 12.0441 8.46491 12.005Z" fill="#CED0D6"/>
<path d="M4.5 7.5C4.5 6.11929 5.61929 5 7 5H9C10.2198 5 11.2356 5.8736 11.4558 7.02928C10.8197 7.09813 10.2194 7.28628 9.67768 7.5709C9.40297 7.22317 8.97755 7 8.5 7C7.67157 7 7 7.67157 7 8.5V12C7 12.489 7.07021 12.9617 7.2011 13.4084C5.65306 13.047 4.5 11.6582 4.5 10V7.5Z" fill="#253627"/>
</g>
<defs>
<clipPath id="clip0_1142_18308">
<rect width="16" height="16" fill="white"/>
</clipPath>
</defs>
</svg>
