<svg width="24" height="24" viewBox="0 0 24 24" fill="none" xmlns="http://www.w3.org/2000/svg">
<g clip-path="url(#clip0_1066_12412)">
<path fill-rule="evenodd" clip-rule="evenodd" d="M17.19 8H20V10H17.91C17.96 10.33 18 10.66 18 11C15.6213 11 13.5196 12.1865 12.2547 14H10V16H11.2899C11.1013 16.6337 11 17.305 11 18C11 19.0701 11.2401 20.084 11.6694 20.991C9.58929 20.8776 7.79802 19.7005 6.81 18H4V16H6.09C6.04 15.67 6 15.34 6 15V14H4V12H6V11C6 10.66 6.04 10.33 6.09 10H4V8H6.81C7.26 7.22 7.88 6.55 8.62 6.04L7 4.41L8.41 3L10.59 5.17C11.04 5.06 11.51 5 12 5C12.49 5 12.96 5.06 13.42 5.17L15.59 3L17 4.41L15.37 6.04C16.12 6.55 16.74 7.22 17.19 8ZM10 12H14V10H10V12Z" fill="#5F9A5C"/>
<path d="M23 17C23 17 21.9975 15.6341 21.1831 14.8191C20.3687 14.0041 19.2432 13.5 18 13.5C15.5147 13.5 13.5 15.5147 13.5 18C13.5 20.4853 15.5147 22.5 18 22.5C20.0516 22.5 21.7825 21.1272 22.3241 19.25M23 17V14M23 17H20" stroke="#AFB1B3" stroke-width="1.5" stroke-linecap="round" stroke-linejoin="round"/>
</g>
<defs>
<clipPath id="clip0_1066_12412">
<rect width="24" height="24" fill="white"/>
</clipPath>
</defs>
</svg>
