<svg fill="none" viewBox="0 0 26 25" xmlns="http://www.w3.org/2000/svg">
  <g clip-path="url(#a)">
    <path d="m20 8h-2.81c-0.45-0.78-1.07-1.45-1.82-1.96l1.63-1.63-1.41-1.41-2.17 2.17c-0.46-0.11-0.93-0.17-1.42-0.17s-0.96 0.06-1.41 0.17l-2.18-2.17-1.41 1.41 1.62 1.63c-0.74 0.51-1.36 1.18-1.81 1.96h-2.81v2h2.09c-0.05 0.33-0.09 0.66-0.09 1v1h-2v2h2v1c0 0.34 0.04 0.67 0.09 1h-2.09v2h2.81c1.04 1.79 2.97 3 5.19 3s4.15-1.21 5.19-3h2.81v-2h-2.09c0.05-0.33 0.09-0.66 0.09-1v-1h2v-2h-2v-1c0-0.34-0.04-0.67-0.09-1h2.09v-2zm-6 8h-4v-2h4v2zm0-4h-4v-2h4v2z" fill="#5F9A5C"/>
  </g>
  <path d="m23 17s-1.0025-1.3659-1.8169-2.1809-1.9399-1.3191-3.1831-1.3191c-2.4853 0-4.5 2.0147-4.5 4.5s2.0147 4.5 4.5 4.5c2.0516 0 3.7825-1.3728 4.3241-3.25m0.6759-2.25v-3m0 3h-3" stroke="#3D3F41" stroke-linecap="round" stroke-linejoin="round" stroke-width="5"/>
  <path d="m23 17s-1.0025-1.3659-1.8169-2.1809-1.9399-1.3191-3.1831-1.3191c-2.4853 0-4.5 2.0147-4.5 4.5s2.0147 4.5 4.5 4.5c2.0516 0 3.7825-1.3728 4.3241-3.25m0.6759-2.25v-3m0 3h-3" stroke="#AFB1B3" stroke-linecap="round" stroke-linejoin="round" stroke-width="1.5"/>
  <defs>
    <clipPath id="a">
      <rect width="24" height="24" fill="#fff"/>
    </clipPath>
  </defs>
</svg>
