<svg viewBox="0 0 48 48" fill="none" xmlns="http://www.w3.org/2000/svg">
<path d="M26.1394 19.0145C26.1513 18.9155 26.1592 18.8047 26.1592 18.6962C26.1592 17.6414 26.412 16.5352 28.9803 16.5352H37.5687C41.4421 16.5352 42.9661 14.7392 42.9661 11.0681V7.94494C42.9661 6.89887 42.2211 6.05078 41.1775 6.05078C40.1331 6.05078 39.3375 6.89887 39.3375 7.94494L39.3541 9.01C39.3541 10.1915 38.621 11.0031 36.8529 11.0031H28.4328C24.6012 11.0031 24.3066 13.8531 24.1809 15.3616H24.0964C23.97 13.8531 23.6753 11.0031 19.8437 11.0031H11.4237C9.6556 11.0031 8.67992 10.1812 8.67992 8.99971V7.94494C8.67992 6.89887 7.88832 6.05078 6.8447 6.05078C5.80029 6.05078 5 6.89887 5 7.94494V11.0681C5 14.7392 6.83443 16.5352 10.7079 16.5352H19.2962C21.8646 16.5352 22.1174 17.6414 22.1174 18.6962C22.1174 18.8047 22.1253 18.9116 22.1372 19.0105C22.198 20.0661 23.0694 20.9071 24.1383 20.9071C25.2072 20.9071 26.0786 20.0709 26.1394 19.0145Z" fill="#6e6e6e"/>
<path d="M23.9815 42.6568C24.8876 42.6568 25.6659 42.1167 26.0187 41.3417C26.0361 41.3108 26.0534 41.2816 26.0708 41.2484L33.8851 26.7707C34.1029 26.3887 34.2174 25.9585 34.2174 25.5252C34.2174 24.1404 33.0926 23.0135 31.7113 23.0135C30.6007 23.0135 29.8461 23.5576 29.3362 24.7256L23.9822 34.7232L18.6354 24.7375C18.1192 23.5576 17.3646 23.0135 16.254 23.0135C14.8727 23.0135 13.7487 24.1404 13.7487 25.5252C13.7487 25.9585 13.8624 26.3887 14.0786 26.7675L21.8937 41.2468C21.9055 41.2689 21.9174 41.2879 21.9292 41.3092C22.2742 42.1024 23.0627 42.6568 23.9815 42.6568Z" fill="#6e6e6e"/>
</svg>
