<svg width="16" height="16" viewBox="0 0 16 16" fill="none" xmlns="http://www.w3.org/2000/svg">
<path d="M7 4C6.76231 4 6.53015 4.02369 6.30577 4.06885C6.37272 3.19125 7.10603 2.5 8.00078 2.5C8.89564 2.5 9.62902 3.19142 9.69582 4.06917C9.47094 4.02381 9.23825 4 9 4H7Z" fill="#F2FCF3"/>
<path d="M10.65 11.35C10.8453 11.5452 11.1547 11.5452 11.35 11.35C11.5453 11.1547 11.5453 10.8453 11.35 10.65L10.7071 9.99997H14.5C14.7761 9.99997 15 9.77607 15 9.49997C15 9.22387 14.7761 8.99997 14.5 8.99997H10.7071L11.35 8.34991C11.5453 8.15461 11.5453 7.84527 11.35 7.64997C11.1547 7.45477 10.8453 7.45471 10.65 7.64991C10.4547 7.84511 9.14645 9.14637 9.14645 9.14637C9.05268 9.24017 9 9.36737 9 9.49997C9 9.63257 9.05268 9.75977 9.14645 9.85357L10.65 11.35Z" fill="#6C707E"/>
<path d="M12.65 11.6499C12.8453 11.4547 13.1547 11.4547 13.35 11.6499L14.8536 13.1463C14.9015 13.1943 14.9377 13.2495 14.9621 13.3085C14.9865 13.3675 15 13.4321 15 13.4999C15 13.5677 14.9865 13.6323 14.9621 13.6913C14.9377 13.7503 14.9015 13.8055 14.8536 13.8535L13.35 15.35C13.1547 15.5452 12.8453 15.5452 12.65 15.35C12.4548 15.1547 12.4548 14.8453 12.65 14.65L13.2929 13.9999H9.5C9.22386 13.9999 9 13.776 9 13.4999C9 13.2238 9.22386 12.9999 9.5 12.9999H13.2929C13.2929 12.9999 12.8452 12.5453 12.65 12.35C12.4548 12.1547 12.4548 11.8452 12.65 11.6499Z" fill="#6C707E"/>
<path d="M4.5 7.5C4.5 6.11929 5.61929 5 7 5H9C10.0388 5 10.9297 5.63361 11.3071 6.53545C10.8304 6.43527 10.3149 6.57093 9.943 6.9427C9.84645 7.03921 9.47176 7.41214 9.11968 7.76245L8.44125 8.43736L8.43922 8.43938C8.15803 8.72067 8 9.10216 8 9.49997C8 9.89778 8.15803 10.2793 8.43922 10.5606L8.44102 10.5624L9.88545 11.9999H9.5C8.67152 11.9999 8 12.6716 8 13.4999C6.067 13.4999 4.5 11.933 4.5 10V7.5Z" fill="#F2FCF3"/>
<path fill-rule="evenodd" clip-rule="evenodd" d="M10.7008 4.2C10.7008 4.27899 10.6974 4.35728 10.6907 4.4347C11.1618 4.69509 11.5665 5.06092 11.8729 5.50036L13.9791 4.36035C14.222 4.2289 14.5254 4.31922 14.6569 4.56207C14.7883 4.80492 14.698 5.10835 14.4551 5.23979L12.3218 6.39447C12.4374 6.74197 12.5 7.11367 12.5 7.5V7.99997H12.4965C12.4965 7.6179 12.3499 7.23567 12.057 6.94275C11.8431 6.7289 11.5815 6.59311 11.3071 6.53545C10.9297 5.63361 10.0388 5 9 5H7C5.61929 5 4.5 6.11929 4.5 7.5V10C4.5 11.933 6.067 13.5 8 13.5C8.00002 13.877 8.13914 14.2216 8.36886 14.4851C8.24721 14.495 8.12419 14.5 8 14.5C6.36122 14.5 4.92703 13.624 4.14017 12.3147L2.02989 13.5331C1.79075 13.6711 1.48495 13.5892 1.34688 13.3501C1.20881 13.1109 1.29075 12.8051 1.52989 12.667L3.72243 11.4012C3.57807 10.9602 3.5 10.4892 3.5 10V9.50006H1C0.723858 9.50006 0.5 9.2762 0.5 9.00006C0.5 8.72392 0.723858 8.50006 1 8.50006H3.5V7.5C3.5 7.11364 3.5626 6.74191 3.67822 6.39438L1.5423 5.2399C1.29938 5.1086 1.20889 4.80523 1.34019 4.5623C1.4715 4.31937 1.77487 4.22888 2.0178 4.36019L4.12714 5.5003C4.43389 5.06042 4.83909 4.6943 5.3108 4.43387C5.30416 4.35672 5.30078 4.27871 5.30078 4.2C5.30078 2.70883 6.50961 1.5 8.00078 1.5C9.49195 1.5 10.7008 2.70883 10.7008 4.2ZM7 4C6.76231 4 6.53015 4.02369 6.30577 4.06885C6.37272 3.19125 7.10603 2.5 8.00078 2.5C8.89564 2.5 9.62902 3.19142 9.69582 4.06917C9.47094 4.02381 9.23825 4 9 4H7Z" fill="#208A3C"/>
</svg>
