<svg viewBox="0 0 244 244" fill="none" xmlns="http://www.w3.org/2000/svg">
<path d="M14.2681 30L38.6907 30C39.4515 30 39.7052 30.5115 39.7052 31.2789L39.7052 42.7885C39.7052 50.2059 46.0457 56.6002 53.4007 56.6002L91.5243 56.6002C112.067 56.6002 118.609 65.5522 120.637 71.6907C121.308 73.7179 123.103 73.7697 123.817 71.6907C126.099 65.0406 131.425 56.6002 152.729 56.6002L190.599 56.6002C197.954 56.6002 204.295 50.2059 204.295 42.7886L204.295 31.2789C204.295 30.5116 204.548 30 205.309 30L229.732 30C230.493 30 231 30.5116 231 31.2789L231 45.3463C231 69.6445 219.08 86.0023 194.986 86.0023L145.628 86.0023C138.019 86.0023 131.933 89.7776 131.933 103.876L131.933 108.262C131.933 109.029 131.425 109.541 130.664 109.541L113.082 109.541C112.321 109.541 111.814 109.029 111.814 108.262L111.814 103.876C111.814 93.0162 105.727 86.0023 98.372 86.0023L48.7605 86.0023C24.6665 86.0023 13 69.6445 13 45.3463L13 31.2789C13 30.5115 13.5072 30 14.2681 30Z" fill="#056FF0"/>
<path d="M123.568 173.363L149.397 111.652C149.893 110.805 150.885 110.636 151.629 110.636L182.219 110.636C182.963 110.636 183.706 110.975 183.211 111.822L132.48 213.153C132.232 213.661 131.736 214 130.992 214L113.404 214C112.66 214 112.164 213.661 111.916 213.153L60.8261 111.653C60.3303 110.806 60.8261 110.467 61.8178 110.467L93.5207 110.636C94.2645 110.636 95.2562 110.974 95.5041 111.652L121.754 173.363C121.754 173.673 123.568 173.673 123.568 173.363Z" fill="#056FF0"/>
</svg>
